<?xml version="1.0" encoding="UTF-8" standalone="no"?>
<svg
   width="199px"
   height="200px"
   version="1.1"
   id="svg4"
   sodipodi:docname="me.svg"
   inkscape:version="1.1.2 (0a00cf5339, 2022-02-04)"
   xmlns:inkscape="http://www.inkscape.org/namespaces/inkscape"
   xmlns:sodipodi="http://sodipodi.sourceforge.net/DTD/sodipodi-0.dtd"
   xmlns="http://www.w3.org/2000/svg"
   xmlns:svg="http://www.w3.org/2000/svg">
  <defs
     id="defs8" />
  <sodipodi:namedview
     id="namedview6"
     pagecolor="#ffffff"
     bordercolor="#666666"
     borderopacity="1.0"
     inkscape:pageshadow="2"
     inkscape:pageopacity="0.0"
     inkscape:pagecheckerboard="0"
     showgrid="false"
     inkscape:zoom="3.15"
     inkscape:cx="13.015873"
     inkscape:cy="99.84127"
     inkscape:window-width="2560"
     inkscape:window-height="1007"
     inkscape:window-x="0"
     inkscape:window-y="0"
     inkscape:window-maximized="1"
     inkscape:current-layer="svg4" />
  <path
     style="fill:#000000"
     d="M 71.821111,197.61846 C 55.451251,192.6101 42.668631,184.69144 30.242931,171.86134 17.062751,158.25219 8.8068219,144.1278 3.1558319,125.52024 0.62516187,117.18725 0.42259187,115.22327 0.42259187,99.020235 c 0,-16.277269 0.19319,-18.128839 2.76500003,-26.500004 C 11.851461,44.31952 30.293471,22.848067 57.676641,9.0803369 65.464291,5.1648582 86.961321,0.04833145 95.692771,0.03208585 112.38002,0.00103785 134.45388,5.4384338 148.64513,13.075698 c 43.81839,23.581631 61.53797,76.141447 42.08831,124.842392 -9.20347,23.04501 -30.33841,44.43208 -53.39265,54.02958 -14.88337,6.19596 -24.84045,8.07921 -42.397899,8.01899 -13.34523,-0.0458 -16.71475,-0.38798 -23.12178,-2.3482 z m 41.259109,-7.53661 c 13.15551,-3.36461 21.15276,-8.89037 26.14702,-18.06647 4.09516,-7.52417 4.54098,-15.34676 1.40624,-24.67508 l -2.41279,-7.17994 3.05021,1.3221 c 1.67762,0.72715 7.81108,3.61873 13.62991,6.42573 5.81884,2.80699 12.67309,5.39056 15.23166,5.74125 l 4.65196,0.63762 6.919,-14.1676 c 9.20706,-18.85272 10.61768,-24.64513 10.61768,-43.599229 0,-17.144506 -1.56984,-23.989527 -8.62068,-37.588941 C 169.05138,30.676675 136.69441,11.221686 99.683243,8.4150109 c -8.936462,-0.67768 -7.516422,-0.980165 -35.920342,7.6514841 -11.16759,3.39371 -20.0156,9.114313 -29.58202,19.125987 -24.2276486,25.355277 -31.7688791,62.988593 -19.40874,96.856188 3.02153,8.27918 8.51443,18.921 11.75691,22.77757 l 1.79206,2.13146 19.1898,-6.74186 c 10.55439,-3.70803 19.48446,-7.03653 19.84461,-7.39668 0.5053,-0.50529 -4.7677,-21.81146 -9.18216,-37.10157 -0.39402,-1.36477 -0.84081,-1.53677 -1.83933,-0.70807 -1.08358,0.89929 -1.38368,-2.97168 -1.68211,-21.697364 -0.19978,-12.535559 -0.0287,-25.035887 0.38011,-27.778507 1.07111,-7.185265 6.59968,-14.565338 18.13251,-24.205058 14.73706,-12.31798 21.64612,-14.908634 32.820609,-12.306563 14.36327,3.344607 27.51207,14.294309 34.51302,28.740821 3.69213,7.618732 3.77053,8.025481 4.38645,22.757382 0.4402,10.528892 1.15201,16.426536 2.38803,19.785848 l 1.76089,4.785849 -4.55372,9.714162 c -5.56331,11.86782 -6.16025,13.9049 -4.61888,15.76214 0.9574,1.1536 0.91274,1.45201 -0.21731,1.45201 -0.93916,0 -1.85735,2.10596 -2.70278,6.19913 -2.52364,12.21829 -10.50744,26.00436 -20.96189,36.19608 l -5.02141,4.89522 -8.40013,-0.52407 c -5.291459,-0.33012 -10.115539,-1.28287 -13.035449,-2.57449 -5.32779,-2.35673 -13.60636,-9.74506 -17.8858,-15.96245 -1.6167,-2.34881 -3.36147,-4.00976 -3.87726,-3.69098 -2.81136,1.73752 0.68802,18.81325 6.14011,29.96156 5.29366,10.82435 7.6676,13.58497 12.47837,14.51093 7.4931,1.44224 18.943579,1.03516 26.702829,-0.94932 z m 30.81118,-76.75259 c 0.0387,-0.44496 0.45702,-1.70902 0.92971,-2.80902 0.82859,-1.92824 0.86195,-1.92138 0.92971,0.19098 0.0387,1.20504 -0.37971,2.4691 -0.92971,2.80902 -0.55,0.33992 -0.96837,0.25398 -0.92971,-0.19098 z m -37.77786,41.85777 6.24851,-2.83321 -0.37116,-4.66679 c -0.34758,-4.37024 0.78956,-6.15962 2.33022,-3.66679 0.33992,0.55 1.87173,1 3.40403,1 2.75,0 5.26973,-2.01318 6.34255,-5.06749 0.30282,-0.86212 3.26383,-5.69954 6.58002,-10.74982 4.77527,-7.27233 6.16867,-10.2967 6.69879,-14.53962 1.19919,-9.59795 -3.15627,-46.432295 -7.0164,-59.338138 -1.86652,-6.24048 -4.40637,-8.442173 -13.06133,-11.32236 -6.07876,-2.022882 -6.71359,-2.056769 -11.19591,-0.597638 -2.61346,0.850762 -9.476749,2.011322 -15.251749,2.579022 -8.4815,0.833758 -11.69452,1.634492 -16.71377,4.165332 -10.15588,5.120868 -9.61185,3.277206 -9.02577,30.587527 0.62919,29.319855 2.91372,43.484965 9.38309,58.179435 2.25101,5.11292 2.47127,5.30982 4.19484,3.75 2.5978,-2.35097 5.46575,-2.17986 4.68517,0.27953 -0.36427,1.14772 -0.0457,2.25879 0.78843,2.75 0.76981,0.45332 2.2179,2.56881 3.21797,4.70108 1.29149,2.7536 2.99923,4.4132 5.89418,5.72803 5.29916,2.40678 5.52811,2.39009 12.868289,-0.9381 z M 93.905451,141.77024 c -0.46817,-1.2375 -0.72597,-2.3902 -0.5729,-2.56155 0.15308,-0.17135 3.04118,0.001 6.418002,0.38308 5.914947,0.6692 6.077827,0.76295 4.450127,2.56155 -1.09599,1.21105 -3.05166,1.86692 -5.566779,1.86692 -3.10196,0 -4.04744,-0.4499 -4.72845,-2.25 z m 20.609329,-4.53164 c -0.66953,-3.34768 -0.25197,-3.26428 -23.929479,-4.77974 -9.3301,-0.59717 -9.69137,-0.70617 -8.6695,-2.61554 0.58646,-1.09582 2.60507,-2.63534 4.4858,-3.42116 3.35278,-1.40088 3.41951,-1.54559 3.41951,-7.41534 0,-6.22965 1.32239,-7.7129 4,-4.48658 0.86726,1.04498 3.16997,1.5 7.591059,1.5 5.2302,0 6.24495,0.26377 5.77057,1.5 -0.31659,0.825 -1.44539,1.5 -2.50846,1.5 -2.83911,0 -8.990499,3.38489 -12.918099,7.10837 l -3.43507,3.25655 3.5,0.77883 c 1.925,0.42836 6.51979,0.90876 10.210639,1.06754 5.1895,0.22327 7.08686,-0.0867 8.37032,-1.36733 1.32522,-1.3223 2.2451,-1.45195 4.56467,-0.64335 2.68375,0.93556 2.85521,1.29015 2.25145,4.65604 -1.00593,5.6079 -2.00556,6.85095 -2.70341,3.36171 z m -10.69367,-10.15934 c 0,-0.51754 0.45,-1.2191 1,-1.55902 0.55,-0.33992 1,0.0835 1,0.94098 0,0.85746 -0.45,1.55902 -1,1.55902 -0.55,0 -1,-0.42344 -1,-0.94098 z M 72.571111,94.446837 c -2.94756,-1.930237 -3.75,-3.094562 -3.75,-5.441165 0,-2.594055 0.36246,-2.985441 2.76481,-2.985441 1.52065,0 4.42839,-0.891625 6.46165,-1.981388 3.17646,-1.702482 4.42527,-1.843245 8.87168,-1 2.84616,0.539763 5.33842,0.981388 5.53835,0.981388 0.19993,0 0.36351,1.784824 0.36351,3.966275 v 3.966274 l -3.34069,-1.971053 c -3.33757,-1.969217 -3.34242,-1.969132 -5.20624,0.09037 -1.23324,1.362714 -2.60424,1.876027 -4.04489,1.514445 -2.57807,-0.647054 -4.71142,1.479874 -3.81844,3.806943 0.78511,2.04597 0.69692,2.02423 -3.83974,-0.946646 z m 52.255319,-0.676606 c -0.59044,-0.6875 -1.70289,-2.15 -2.47211,-3.25 -1.12112,-1.603235 -1.64998,-1.752022 -2.66589,-0.75 -1.38114,1.362267 -5.79898,1.613668 -10.79565,0.614334 -2.69529,-0.539057 -3.13223,-1.025564 -2.875,-3.201101 0.41372,-3.499083 5.70606,-6.563144 9.78766,-5.666675 3.75818,0.825434 3.86782,2.064716 0.26567,3.002756 -2.50554,0.65247 -2.57221,0.78313 -0.75,1.469841 1.1,0.414542 4.17076,1.073627 6.82391,1.464634 4.735,0.69782 4.80232,0.670596 3.65289,-1.477135 -0.94376,-1.763433 -0.90959,-2.102758 0.17609,-1.748514 2.37664,0.775468 3.97548,5.324019 2.8822,8.199576 -1.07945,2.83915 -2.37392,3.270328 -4.02977,1.342284 z"
     id="path6" />
</svg>
